# xmcd
#
# Track frame offsets: 
#        150
#        13902
#        26542
#        36170
#        45925
#        56282
#        67230
#        77537
#        89454
#        103440
#        117117
#        127157
#        138665
#        150092
#        159720
#        170427
#        182302
#        195867
#        208592
#        223707
#        236242
#        246307
#
# Disc length: 3460 seconds
#
# Revision: 5
# Processed by: cddbd v1.5.2PL0 Copyright (c) Steve Scherf et al.
# Submitted via: ExactAudioCopyFreeDBPlugin 1.0
#
DISCID=2f0d8216
DTITLE=Slim Harpo - The Excello Singles Anthology
DYEAR=2003
DGENRE=Blues
TTITLE0=I'm a King Bee
TTITLE1=I Got Love If You Want It
TTITLE2=Wondering and Worryin'
TTITLE3=Strange Love
TTITLE4=You'll Be Sorry One Day
TTITLE5=One More Day
TTITLE6=Buzz Me Babe
TTITLE7=Late Last Night
TTITLE8=Blues Hangover
TTITLE9=What a Dream
TTITLE10=Don't Start Cryin' Now
TTITLE11=Rain' in My Heart
TTITLE12=I Love the Life I'm Living
TTITLE13=Buzzin'
TTITLE14=I Need Money (Keep Your Alibis)
TTITLE15=Little Queen Bee (Got a Brand New King)
TTITLE16=Still Rainin' in My Heart
TTITLE17=We're Two of a Kind
TTITLE18=Sittin' Here Wondering
TTITLE19=What's Goin' on Baby
TTITLE20=Harpo's Blues
TTITLE21=Please Don't Turn Me Down
EXTD=
EXTT0=I'm a King Bee
EXTT1=
EXTT2=
EXTT3=
EXTT4=
EXTT5=
EXTT6=
EXTT7=
EXTT8=
EXTT9=
EXTT10=
EXTT11=
EXTT12=
EXTT13=
EXTT14=
EXTT15=
EXTT16=
EXTT17=
EXTT18=
EXTT19=
EXTT20=
EXTT21=
PLAYORDER=
